<svg width="157" height="55" viewBox="0 0 157 55" fill="none" xmlns="http://www.w3.org/2000/svg">
<path d="M0.5 8.00025C0.5 3.85811 3.85786 0.500244 8 0.500244H148.07C152.212 0.500244 155.57 3.85811 155.57 8.00024V46.5002C155.57 50.6424 152.212 54.0002 148.07 54.0002H8.00001C3.85787 54.0002 0.5 50.6424 0.5 46.5002V8.00025Z" fill="#FFC107"/>
<path d="M0.5 8.00025C0.5 3.85811 3.85786 0.500244 8 0.500244H148.07C152.212 0.500244 155.57 3.85811 155.57 8.00024V46.5002C155.57 50.6424 152.212 54.0002 148.07 54.0002H8.00001C3.85787 54.0002 0.5 50.6424 0.5 46.5002V8.00025Z" stroke="#FFC107"/>
<path d="M50.7121 24.7814H49.1388C49.0783 24.4452 48.9656 24.1493 48.8009 23.8939C48.6362 23.6384 48.4345 23.4215 48.1958 23.2434C47.9571 23.0652 47.6899 22.9307 47.394 22.8399C47.1016 22.7492 46.7906 22.7038 46.4612 22.7038C45.8661 22.7038 45.3333 22.8534 44.8626 23.1526C44.3954 23.4518 44.0256 23.8905 43.7533 24.4687C43.4843 25.0469 43.3499 25.7529 43.3499 26.5866C43.3499 27.427 43.4843 28.1364 43.7533 28.7146C44.0256 29.2928 44.397 29.7298 44.8677 30.0257C45.3383 30.3215 45.8678 30.4694 46.4561 30.4694C46.7822 30.4694 47.0915 30.4257 47.3839 30.3383C47.6798 30.2475 47.947 30.1148 48.1857 29.9399C48.4244 29.7651 48.6261 29.5517 48.7908 29.2995C48.9589 29.044 49.0749 28.7516 49.1388 28.4221L50.7121 28.4272C50.628 28.9348 50.465 29.4021 50.2229 29.829C49.9843 30.2526 49.6767 30.619 49.3001 30.9283C48.927 31.2342 48.5 31.4712 48.0193 31.6393C47.5386 31.8074 47.0142 31.8914 46.446 31.8914C45.5518 31.8914 44.7551 31.6796 44.0558 31.2561C43.3566 30.8291 42.8053 30.219 42.4018 29.4256C42.0018 28.6322 41.8018 27.6859 41.8018 26.5866C41.8018 25.484 42.0035 24.5376 42.4069 23.7476C42.8103 22.9542 43.3616 22.3458 44.0609 21.9222C44.7601 21.4952 45.5552 21.2818 46.446 21.2818C46.994 21.2818 47.505 21.3608 47.979 21.5188C48.4563 21.6734 48.885 21.902 49.2648 22.2046C49.6447 22.5038 49.959 22.8702 50.2078 23.3039C50.4566 23.7342 50.6247 24.2267 50.7121 24.7814ZM62.0474 26.5866C62.0474 27.6893 61.8457 28.6373 61.4423 29.4306C61.0389 30.2207 60.4859 30.8291 59.7833 31.2561C59.084 31.6796 58.289 31.8914 57.3981 31.8914C56.5039 31.8914 55.7055 31.6796 55.0029 31.2561C54.3036 30.8291 53.7523 30.219 53.3489 29.4256C52.9455 28.6322 52.7438 27.6859 52.7438 26.5866C52.7438 25.484 52.9455 24.5376 53.3489 23.7476C53.7523 22.9542 54.3036 22.3458 55.0029 21.9222C55.7055 21.4952 56.5039 21.2818 57.3981 21.2818C58.289 21.2818 59.084 21.4952 59.7833 21.9222C60.4859 22.3458 61.0389 22.9542 61.4423 23.7476C61.8457 24.5376 62.0474 25.484 62.0474 26.5866ZM60.5044 26.5866C60.5044 25.7462 60.3682 25.0385 60.0959 24.4637C59.827 23.8854 59.4572 23.4484 58.9865 23.1526C58.5192 22.8534 57.9898 22.7038 57.3981 22.7038C56.8031 22.7038 56.2719 22.8534 55.8046 23.1526C55.3374 23.4484 54.9676 23.8854 54.6953 24.4637C54.4263 25.0385 54.2918 25.7462 54.2918 26.5866C54.2918 27.427 54.4263 28.1364 54.6953 28.7146C54.9676 29.2894 55.3374 29.7265 55.8046 30.0257C56.2719 30.3215 56.8031 30.4694 57.3981 30.4694C57.9898 30.4694 58.5192 30.3215 58.9865 30.0257C59.4572 29.7265 59.827 29.2894 60.0959 28.7146C60.3682 28.1364 60.5044 27.427 60.5044 26.5866ZM72.8255 21.423V31.7502H71.3934L66.144 24.1762H66.0482V31.7502H64.4901V21.423H65.9322L71.1866 29.0071H71.2825V21.423H72.8255ZM83.9339 21.423V31.7502H82.5018L77.2524 24.1762H77.1566V31.7502H75.5985V21.423H77.0406L82.295 29.0071H82.3909V21.423H83.9339ZM86.7069 31.7502V21.423H93.1816V22.7643H88.265V25.9109H92.8437V27.2472H88.265V30.4089H93.2421V31.7502H86.7069ZM104.34 24.7814H102.767C102.707 24.4452 102.594 24.1493 102.429 23.8939C102.265 23.6384 102.063 23.4215 101.824 23.2434C101.585 23.0652 101.318 22.9307 101.022 22.8399C100.73 22.7492 100.419 22.7038 100.089 22.7038C99.4944 22.7038 98.9616 22.8534 98.491 23.1526C98.0237 23.4518 97.6539 23.8905 97.3816 24.4687C97.1126 25.0469 96.9782 25.7529 96.9782 26.5866C96.9782 27.427 97.1126 28.1364 97.3816 28.7146C97.6539 29.2928 98.0254 29.7298 98.496 30.0257C98.9666 30.3215 99.4961 30.4694 100.084 30.4694C100.411 30.4694 100.72 30.4257 101.012 30.3383C101.308 30.2475 101.575 30.1148 101.814 29.9399C102.053 29.7651 102.254 29.5517 102.419 29.2995C102.587 29.044 102.703 28.7516 102.767 28.4221L104.34 28.4272C104.256 28.9348 104.093 29.4021 103.851 29.829C103.613 30.2526 103.305 30.619 102.928 30.9283C102.555 31.2342 102.128 31.4712 101.648 31.6393C101.167 31.8074 100.642 31.8914 100.074 31.8914C99.1801 31.8914 98.3834 31.6796 97.6841 31.2561C96.9849 30.8291 96.4336 30.219 96.0302 29.4256C95.6301 28.6322 95.4301 27.6859 95.4301 26.5866C95.4301 25.484 95.6318 24.5376 96.0352 23.7476C96.4386 22.9542 96.9899 22.3458 97.6892 21.9222C98.3884 21.4952 99.1835 21.2818 100.074 21.2818C100.622 21.2818 101.133 21.3608 101.607 21.5188C102.085 21.6734 102.513 21.902 102.893 22.2046C103.273 22.5038 103.587 22.8702 103.836 23.3039C104.085 23.7342 104.253 24.2267 104.34 24.7814ZM106.196 22.7643V21.423H114.188V22.7643H110.966V31.7502H109.413V22.7643H106.196Z" fill="black"/>
</svg>
