<svg width="65" height="65" viewBox="0 0 65 65" fill="none" xmlns="http://www.w3.org/2000/svg">
<path d="M0 32.5C0 14.5507 14.5507 0 32.5 0C50.4493 0 65 14.5507 65 32.5C65 50.4493 50.4493 65 32.5 65C14.5507 65 0 50.4493 0 32.5Z" fill="#631B94"/>
<path d="M43.6667 44.3332H20.3333C19.4493 44.3332 18.6014 43.982 17.9763 43.3569C17.3512 42.7317 17 41.8839 17 40.9998V25.9998C17 25.1158 17.3512 24.2679 17.9763 23.6428C18.6014 23.0177 19.4493 22.6665 20.3333 22.6665H43.6667C44.5507 22.6665 45.3986 23.0177 46.0237 23.6428C46.6488 24.2679 47 25.1158 47 25.9998V40.9998C47 41.8839 46.6488 42.7317 46.0237 43.3569C45.3986 43.982 44.5507 44.3332 43.6667 44.3332Z" stroke="#E4D2F3" stroke-width="1.5"/>
<path d="M39.5001 34.3332C39.2791 34.3332 39.0671 34.2454 38.9108 34.0891C38.7545 33.9328 38.6667 33.7209 38.6667 33.4998C38.6667 33.2788 38.7545 33.0669 38.9108 32.9106C39.0671 32.7543 39.2791 32.6665 39.5001 32.6665C39.7211 32.6665 39.9331 32.7543 40.0893 32.9106C40.2456 33.0669 40.3334 33.2788 40.3334 33.4998C40.3334 33.7209 40.2456 33.9328 40.0893 34.0891C39.9331 34.2454 39.7211 34.3332 39.5001 34.3332Z" fill="#E4D2F3" stroke="#E4D2F3" stroke-width="1.5" stroke-linecap="round" stroke-linejoin="round"/>
<path d="M42 22.6666V20.3383C41.9999 19.8274 41.8823 19.3235 41.6564 18.8653C41.4306 18.4071 41.1024 18.007 40.6973 17.6958C40.2922 17.3846 39.821 17.1707 39.3201 17.0705C38.8192 16.9704 38.3019 16.9867 37.8083 17.1183L19.475 22.0066C18.7651 22.1958 18.1376 22.6142 17.69 23.1968C17.2424 23.7794 16.9998 24.4936 17 25.2283V25.9999" stroke="#E4D2F3" stroke-width="1.5"/>
</svg>
