<svg width="40" height="44" viewBox="0 0 40 44" fill="none" xmlns="http://www.w3.org/2000/svg">
<path d="M4.54225 39.1289C7.17825 42.0569 11.4222 42.0569 19.9062 42.0569C28.3923 42.0569 32.6342 42.0569 35.2702 39.1269C37.9062 36.2009 37.9062 31.4849 37.9062 22.0569C37.9062 12.6289 37.9062 7.91488 35.2702 4.98488C32.6342 2.05688 28.3903 2.05688 19.9062 2.05688C11.4202 2.05688 7.17825 2.05688 4.54225 4.98488C1.90625 7.91688 1.90625 12.6289 1.90625 22.0569C1.90625 31.4849 1.90625 36.2009 4.54225 39.1289Z" stroke="#631B94" stroke-width="2.56154"/>
<path d="M9.90625 14.0569C9.90625 13.1269 9.90625 12.6629 10.0083 12.2809C10.1446 11.7726 10.4123 11.3092 10.7844 10.9371C11.1565 10.565 11.62 10.2973 12.1283 10.1609C12.5143 10.0569 12.9783 10.0569 13.9062 10.0569H25.9062C26.8363 10.0569 27.3002 10.0569 27.6822 10.1589C28.1905 10.2953 28.654 10.563 29.0261 10.9351C29.3982 11.3072 29.6659 11.7706 29.8022 12.2789C29.9062 12.6649 29.9062 13.1289 29.9062 14.0569C29.9062 14.9849 29.9062 15.4509 29.8042 15.8329C29.6679 16.3411 29.4002 16.8046 29.0281 17.1767C28.656 17.5488 28.1925 17.8165 27.6842 17.9529C27.3002 18.0569 26.8342 18.0569 25.9062 18.0569H13.9062C12.9762 18.0569 12.5123 18.0569 12.1303 17.9549C11.622 17.8185 11.1585 17.5508 10.7864 17.1787C10.4143 16.8066 10.1466 16.3431 10.0103 15.8349C9.90625 15.4489 9.90625 14.9849 9.90625 14.0569Z" stroke="#631B94" stroke-width="2.56154"/>
<path d="M11.9062 26.0569C13.0108 26.0569 13.9062 25.1615 13.9062 24.0569C13.9062 22.9523 13.0108 22.0569 11.9062 22.0569C10.8017 22.0569 9.90625 22.9523 9.90625 24.0569C9.90625 25.1615 10.8017 26.0569 11.9062 26.0569Z" fill="#631B94"/>
<path d="M11.9062 34.0569C13.0108 34.0569 13.9062 33.1615 13.9062 32.0569C13.9062 30.9523 13.0108 30.0569 11.9062 30.0569C10.8017 30.0569 9.90625 30.9523 9.90625 32.0569C9.90625 33.1615 10.8017 34.0569 11.9062 34.0569Z" fill="#631B94"/>
<path d="M19.9062 26.0569C21.0108 26.0569 21.9062 25.1615 21.9062 24.0569C21.9062 22.9523 21.0108 22.0569 19.9062 22.0569C18.8017 22.0569 17.9062 22.9523 17.9062 24.0569C17.9062 25.1615 18.8017 26.0569 19.9062 26.0569Z" fill="#631B94"/>
<path d="M19.9062 34.0569C21.0108 34.0569 21.9062 33.1615 21.9062 32.0569C21.9062 30.9523 21.0108 30.0569 19.9062 30.0569C18.8017 30.0569 17.9062 30.9523 17.9062 32.0569C17.9062 33.1615 18.8017 34.0569 19.9062 34.0569Z" fill="#631B94"/>
<path d="M27.9062 26.0569C29.0108 26.0569 29.9062 25.1615 29.9062 24.0569C29.9062 22.9523 29.0108 22.0569 27.9062 22.0569C26.8017 22.0569 25.9062 22.9523 25.9062 24.0569C25.9062 25.1615 26.8017 26.0569 27.9062 26.0569Z" fill="#631B94"/>
<path d="M27.9062 34.0569C29.0108 34.0569 29.9062 33.1615 29.9062 32.0569C29.9062 30.9523 29.0108 30.0569 27.9062 30.0569C26.8017 30.0569 25.9062 30.9523 25.9062 32.0569C25.9062 33.1615 26.8017 34.0569 27.9062 34.0569Z" fill="#631B94"/>
</svg>
