<svg width="18" height="19" viewBox="0 0 18 19" fill="none" xmlns="http://www.w3.org/2000/svg">
<path d="M15.3999 7.10022H8.19985C7.3162 7.10022 6.59985 7.81656 6.59985 8.70022V15.9002C6.59985 16.7839 7.3162 17.5002 8.19985 17.5002H15.3999C16.2835 17.5002 16.9999 16.7839 16.9999 15.9002V8.70022C16.9999 7.81656 16.2835 7.10022 15.3999 7.10022Z" stroke="#121212" stroke-width="2" stroke-linecap="round" stroke-linejoin="round"/>
<path d="M3.4 11.9H2.6C2.17565 11.9 1.76869 11.7314 1.46863 11.4314C1.16857 11.1313 1 10.7243 1 10.3V3.1C1 2.67565 1.16857 2.26869 1.46863 1.96863C1.76869 1.66857 2.17565 1.5 2.6 1.5H9.8C10.2243 1.5 10.6313 1.66857 10.9314 1.96863C11.2314 2.26869 11.4 2.67565 11.4 3.1V3.9" stroke="#121212" stroke-width="2" stroke-linecap="round" stroke-linejoin="round"/>
</svg>
