<svg width="44" height="44" viewBox="0 0 44 44" fill="none" xmlns="http://www.w3.org/2000/svg">
<path d="M42 22C42 33.046 33.046 42 22 42C10.954 42 2 33.046 2 22C2 10.954 10.954 2 22 2C33.046 2 42 10.954 42 22Z" stroke="#631B94" stroke-width="2.56154"/>
<path opacity="0.5" d="M36 36L33 33M36 8L33 11M8 36L11 33M8 8L11 11M2 22H6M38 22H42M22 6V2" stroke="#631B94" stroke-width="2.56154" stroke-linecap="round"/>
<path d="M18.2419 26.7279C17.6847 26.1707 17.2427 25.5092 16.9411 24.7812C16.6396 24.0532 16.4844 23.2729 16.4844 22.4849C16.4844 21.6969 16.6396 20.9166 16.9411 20.1886C17.2427 19.4606 17.6847 18.7991 18.2419 18.2419C18.7991 17.6847 19.4606 17.2427 20.1886 16.9411C20.9166 16.6396 21.6969 16.4844 22.4849 16.4844C23.2729 16.4844 24.0532 16.6396 24.7812 16.9411C25.5092 17.2427 26.1707 17.6847 26.7279 18.2419C27.6199 19.1339 28.2419 20.9839 28.6699 22.9339C29.3119 25.8519 29.6339 27.3099 28.4719 28.4739C27.3119 29.6339 25.8519 29.3139 22.9339 28.6699C20.9839 28.2419 19.1339 27.6199 18.2419 26.7279Z" stroke="#631B94" stroke-width="2.56154"/>
</svg>
