<svg width="65" height="65" viewBox="0 0 65 65" fill="none" xmlns="http://www.w3.org/2000/svg">
<path d="M0 32.5C0 14.5507 14.5507 0 32.5 0C50.4493 0 65 14.5507 65 32.5C65 50.4493 50.4493 65 32.5 65C14.5507 65 0 50.4493 0 32.5Z" fill="#631B94"/>
<path d="M23.8125 27.0157C23.8125 27.5254 23.61 28.0142 23.2496 28.3746C22.8892 28.735 22.4003 28.9375 21.8906 28.9375C21.3809 28.9375 20.8921 28.735 20.5317 28.3746C20.1712 28.0142 19.9688 27.5254 19.9688 27.0157C19.9688 26.5059 20.1712 26.0171 20.5317 25.6567C20.8921 25.2963 21.3809 25.0938 21.8906 25.0938C22.4003 25.0938 22.8892 25.2963 23.2496 25.6567C23.61 26.0171 23.8125 26.5059 23.8125 27.0157ZM26.7286 23.1822C28.2502 22.7474 29.8253 22.5283 31.4078 22.5313C33.1144 22.5313 34.7467 22.7798 36.2586 23.2308C36.5817 23.32 36.9268 23.2789 37.22 23.1166C37.5132 22.9542 37.7311 22.6834 37.827 22.3622C37.9228 22.0411 37.8891 21.6952 37.7329 21.3986C37.5767 21.1021 37.3105 20.8786 36.9914 20.776C35.1793 20.2373 33.2983 19.9654 31.4078 19.9688C29.5269 19.9688 27.7152 20.2327 26.0214 20.717C25.6945 20.8108 25.4182 21.0306 25.2534 21.3281C25.0886 21.6256 25.0487 21.9763 25.1424 22.3032C25.2362 22.6301 25.456 22.9064 25.7535 23.0712C26.051 23.236 26.4017 23.2759 26.7286 23.1822Z" fill="#E4D2F3"/>
<path fill-rule="evenodd" clip-rule="evenodd" d="M31.4077 14.9128C23.7792 14.9128 17.132 19.2793 15.2127 25.4832H13.8033C13.4298 25.4836 13.0608 25.5657 12.7223 25.7237C12.3837 25.8817 12.0839 26.1118 11.8436 26.3979C11.6034 26.6841 11.4287 27.0192 11.3316 27.38C11.2346 27.7408 11.2176 28.1184 11.2818 28.4864L11.9327 32.2277C12.0878 33.1196 12.5528 33.9281 13.2456 34.5108C13.9385 35.0935 14.8148 35.413 15.7201 35.4128H16.394C17.1628 36.7274 18.157 37.919 19.3281 38.9542L17.46 45.3015C17.4039 45.4926 17.393 45.6942 17.4284 45.8903C17.4637 46.0863 17.5443 46.2714 17.6637 46.4308C17.7831 46.5903 17.938 46.7197 18.1162 46.8088C18.2944 46.8979 18.4908 46.9442 18.69 46.9441H23.815C24.0794 46.9441 24.3373 46.8624 24.5534 46.7101C24.7695 46.5578 24.9331 46.3423 25.022 46.0933L26.2571 42.6314C27.8843 43.0747 29.614 43.3156 31.4103 43.3156C33.222 43.3156 34.967 43.0722 36.607 42.6186L37.9985 46.1343C38.093 46.3732 38.2572 46.5782 38.4697 46.7226C38.6821 46.8669 38.9331 46.9441 39.19 46.9441H44.315C44.515 46.9439 44.7121 46.8969 44.8906 46.8069C45.0691 46.7169 45.2241 46.5863 45.3431 46.4257C45.4621 46.2651 45.5419 46.0788 45.5761 45.8818C45.6103 45.6849 45.5979 45.4826 45.5399 45.2913L43.5898 38.8697C46.3881 36.3558 48.1562 32.9323 48.1562 29.1142C48.1562 28.7418 48.1391 28.3737 48.105 28.0098C48.7738 27.7279 49.4067 27.3282 49.9115 26.872C50.7187 27.6562 52 27.6562 52 25.8035C52 26.3749 50.7187 26.3749 50.8187 25.7368C50.9248 25.5305 51.0023 25.3107 51.0493 25.0834C51.1095 24.7866 51.0937 24.4794 51.0032 24.1904C50.9127 23.9014 50.7504 23.64 50.5317 23.4306C50.3009 23.1927 49.9973 23.0388 49.669 22.9933C49.3408 22.9478 49.0067 23.0134 48.72 23.1795C48.457 23.326 48.2327 23.533 48.0656 23.7835C47.8985 24.0339 47.7934 24.3205 47.759 24.6196C47.6975 25.2423 47.9692 25.8496 48.579 26.2955C48.368 26.4426 48.1461 26.5737 47.9153 26.6875C46.547 19.861 39.5001 14.9128 31.4077 14.9128ZM17.4472 27.0412C18.6132 21.747 24.2814 17.4753 31.4077 17.4753C39.4693 17.4753 45.5937 22.8925 45.5937 29.1142C45.5937 32.3276 43.9947 35.2898 41.3143 37.4372C41.1151 37.5975 40.9684 37.8136 40.8931 38.058C40.8177 38.3023 40.8172 38.5635 40.8915 38.8082L42.5828 44.3816H40.0587L38.5468 40.5712C38.4251 40.2641 38.1895 40.0159 37.8892 39.8784C37.5888 39.7409 37.247 39.7247 36.935 39.8332C35.2412 40.4225 33.3732 40.7531 31.4077 40.7531C29.5269 40.7559 27.6589 40.445 25.8804 39.8332C25.5613 39.7222 25.2112 39.7418 24.9065 39.8877C24.6017 40.0336 24.3669 40.294 24.2532 40.6122L22.9079 44.3816H20.3992L22.0213 38.8722C22.0937 38.6267 22.0908 38.3652 22.0132 38.1213C21.9355 37.8774 21.7866 37.6623 21.5857 37.5038C20.2147 36.4426 19.0918 35.095 18.2954 33.555C18.1887 33.3433 18.0254 33.1654 17.8237 33.041C17.6219 32.9166 17.3896 32.8506 17.1525 32.8503H15.7175C15.4162 32.85 15.1246 32.7435 14.894 32.5494C14.6634 32.3554 14.5086 32.0863 14.4568 31.7895L13.8059 28.0482H16.1967C16.4887 28.048 16.7719 27.948 16.9993 27.7649C17.2267 27.5817 17.3847 27.3264 17.4472 27.0412ZM49.7885 24.8451C49.7406 25.0391 49.6553 25.2219 49.5374 25.3832L49.4247 25.3192C49.0505 25.0885 49.0223 24.8707 49.0352 24.7477C49.0485 24.656 49.0824 24.5685 49.1343 24.4917C49.1862 24.415 49.2548 24.3509 49.335 24.3044C49.4605 24.2352 49.54 24.2506 49.6245 24.3352C49.6962 24.3968 49.7495 24.477 49.7785 24.567C49.8074 24.657 49.8109 24.7532 49.7885 24.8451Z" fill="#E4D2F3"/>
</svg>
