<svg width="44" height="44" viewBox="0 0 44 44" fill="none" xmlns="http://www.w3.org/2000/svg">
<path d="M31.854 17.652L11.5207 6.03298M24.5689 1.87045L39.0927 10.1694C39.9823 10.6775 40.7217 11.4119 41.2359 12.298C41.7501 13.1841 42.0209 14.1904 42.0207 15.2149V28.8034C42.0209 29.8279 41.7501 30.8342 41.2359 31.7203C40.7217 32.6065 39.9823 33.3408 39.0927 33.849L24.5689 42.1479C23.6912 42.6492 22.698 42.9129 21.6873 42.9129C20.6766 42.9129 19.6834 42.6492 18.8058 42.1479L4.282 33.849C3.3924 33.3408 2.653 32.6065 2.13879 31.7203C1.62457 30.8342 1.35382 29.8279 1.354 28.8034V15.2149C1.35382 14.1904 1.62457 13.1841 2.13879 12.298C2.653 11.4119 3.3924 10.6775 4.282 10.1694L18.8058 1.87045C19.6834 1.36915 20.6766 1.10547 21.6873 1.10547C22.698 1.10547 23.6912 1.36915 24.5689 1.87045Z" stroke="#631B94" stroke-width="2.17019" stroke-linecap="round" stroke-linejoin="round"/>
<path d="M2.8064 13.2949L18.9336 21.9802C19.78 22.4358 20.7262 22.6743 21.6873 22.6743C22.6485 22.6743 23.5947 22.4358 24.4411 21.9802L40.5683 13.2949M21.6873 23.4616V42.3425" stroke="#631B94" stroke-width="2.17019" stroke-linecap="round" stroke-linejoin="round"/>
</svg>
