<svg width="40" height="40" viewBox="0 0 40 40" fill="none" xmlns="http://www.w3.org/2000/svg">
<path d="M32.1175 20.12L20.3075 31.93L22.4275 34.05L34.2375 22.242L32.1175 20.12ZM8.2575 19.88L20.0675 8.07L17.9475 5.95L6.1375 17.758L8.2575 19.88ZM8.2575 31.93C6.5575 30.23 5.3915 29.058 4.6335 28.064C3.8995 27.102 3.6875 26.484 3.6875 25.904H0.6875C0.6875 27.402 1.3115 28.654 2.2475 29.884C3.1575 31.076 4.4975 32.41 6.1375 34.05L8.2575 31.93ZM6.1375 17.758C4.4975 19.398 3.1575 20.734 2.2475 21.926C1.3115 23.154 0.6875 24.406 0.6875 25.906H3.6875C3.6875 25.326 3.8995 24.706 4.6335 23.746C5.3935 22.75 6.5575 21.58 8.2575 19.88L6.1375 17.758ZM20.3075 31.93C18.6075 33.63 17.4375 34.796 16.4415 35.556C15.4815 36.288 14.8615 36.5 14.2815 36.5V39.5C15.7815 39.5 17.0335 38.876 18.2615 37.94C19.4535 37.03 20.7895 35.69 22.4295 34.05L20.3075 31.93ZM6.1375 34.05C7.7775 35.69 9.1115 37.03 10.3055 37.94C11.5335 38.876 12.7855 39.5 14.2835 39.5V36.5C13.7035 36.5 13.0855 36.288 12.1235 35.554C11.1295 34.794 9.9575 33.63 8.2575 31.93L6.1375 34.05ZM32.1175 8.07C33.8175 9.77 34.9835 10.942 35.7435 11.936C36.4755 12.898 36.6875 13.516 36.6875 14.096H39.6875C39.6875 12.598 39.0635 11.346 38.1275 10.116C37.2175 8.924 35.8775 7.59 34.2375 5.95L32.1175 8.07ZM34.2375 22.242C35.8775 20.602 37.2175 19.266 38.1275 18.074C39.0635 16.846 39.6875 15.594 39.6875 14.094H36.6875C36.6875 14.674 36.4755 15.294 35.7415 16.254C34.9815 17.25 33.8175 18.42 32.1175 20.12L34.2375 22.242ZM34.2375 5.95C32.5975 4.31 31.2635 2.97 30.0695 2.06C28.8415 1.124 27.5895 0.5 26.0915 0.5V3.5C26.6715 3.5 27.2895 3.712 28.2515 4.446C29.2455 5.206 30.4175 6.37 32.1175 8.07L34.2375 5.95ZM20.0675 8.07C21.7675 6.37 22.9375 5.204 23.9335 4.446C24.8935 3.712 25.5135 3.5 26.0935 3.5V0.5C24.5935 0.5 23.3415 1.124 22.1135 2.06C20.9215 2.97 19.5855 4.31 17.9455 5.95L20.0675 8.07Z" fill="#631B94"/>
<path opacity="0.5" d="M22.6694 31.6879C22.9538 31.9529 23.3299 32.0971 23.7185 32.0902C24.1071 32.0834 24.4779 31.926 24.7527 31.6511C25.0275 31.3763 25.1849 31.0055 25.1918 30.6169C25.1987 30.2283 25.0544 29.8522 24.7894 29.5679L22.6694 31.6879ZM10.6194 15.3959C10.481 15.2527 10.3154 15.1385 10.1324 15.06C9.94936 14.9814 9.75251 14.9402 9.55334 14.9385C9.35417 14.9369 9.15667 14.9749 8.97236 15.0504C8.78805 15.126 8.62063 15.2374 8.47986 15.3783C8.33908 15.5192 8.22778 15.6868 8.15245 15.8711C8.07711 16.0555 8.03925 16.253 8.04108 16.4522C8.0429 16.6514 8.08437 16.8482 8.16307 17.0312C8.24177 17.2141 8.35612 17.3796 8.49945 17.5179L10.6194 15.3959ZM24.7914 29.5679L10.6194 15.3959L8.49945 17.5179L22.6694 31.6879L24.7914 29.5679Z" fill="#631B94"/>
<path opacity="0.5" d="M14.1875 38H38.1875" stroke="#631B94" stroke-width="2.56154" stroke-linecap="round"/>
</svg>
