<svg width="125" height="55" viewBox="0 0 125 55" fill="none" xmlns="http://www.w3.org/2000/svg">
<path d="M0.8125 8.00025C0.8125 3.85811 4.17036 0.500244 8.3125 0.500244H116.173C120.315 0.500244 123.673 3.85811 123.673 8.00024V46.5002C123.673 50.6424 120.315 54.0002 116.173 54.0002H8.3125C4.17036 54.0002 0.8125 50.6424 0.8125 46.5002V8.00025Z" fill="#F8F9FA"/>
<path d="M0.8125 8.00025C0.8125 3.85811 4.17036 0.500244 8.3125 0.500244H116.173C120.315 0.500244 123.673 3.85811 123.673 8.00024V46.5002C123.673 50.6424 120.315 54.0002 116.173 54.0002H8.3125C4.17036 54.0002 0.8125 50.6424 0.8125 46.5002V8.00025Z" stroke="#F8F9FA"/>
<path d="M48.0797 24.1359C48.0259 23.6585 47.804 23.2887 47.4141 23.0265C47.0241 22.7609 46.5333 22.6282 45.9416 22.6282C45.518 22.6282 45.1516 22.6954 44.8423 22.8299C44.533 22.961 44.2927 23.1425 44.1212 23.3745C43.9531 23.6031 43.8691 23.8636 43.8691 24.1561C43.8691 24.4015 43.9263 24.6133 44.0406 24.7914C44.1582 24.9696 44.3112 25.1192 44.4994 25.2402C44.6911 25.3579 44.8961 25.4571 45.1146 25.5377C45.3331 25.6151 45.5433 25.6789 45.745 25.7294L46.7535 25.9916C47.0829 26.0723 47.4208 26.1815 47.767 26.3193C48.1133 26.4572 48.4344 26.6387 48.7302 26.864C49.026 27.0892 49.2647 27.3682 49.4462 27.701C49.6311 28.0338 49.7236 28.4322 49.7236 28.8961C49.7236 29.4811 49.5723 30.0005 49.2697 30.4543C48.9705 30.9081 48.5352 31.2662 47.9637 31.5284C47.3956 31.7906 46.7081 31.9217 45.9013 31.9217C45.1281 31.9217 44.4591 31.799 43.8943 31.5536C43.3295 31.3082 42.8875 30.9602 42.5681 30.5098C42.2487 30.0559 42.0723 29.518 42.0386 28.8961H43.6018C43.6321 29.2693 43.7531 29.5802 43.9649 29.829C44.1801 30.0744 44.454 30.2576 44.7869 30.3787C45.123 30.4963 45.4911 30.5551 45.8912 30.5551C46.3316 30.5551 46.7232 30.4862 47.0661 30.3484C47.4124 30.2072 47.6847 30.0122 47.883 29.7635C48.0814 29.5113 48.1805 29.2172 48.1805 28.881C48.1805 28.5751 48.0931 28.3246 47.9183 28.1296C47.7469 27.9347 47.5132 27.7733 47.2174 27.6456C46.9249 27.5178 46.5938 27.4052 46.224 27.3077L45.0037 26.9749C44.1767 26.7497 43.5212 26.4185 43.0371 25.9815C42.5563 25.5445 42.316 24.9662 42.316 24.2468C42.316 23.6518 42.4773 23.1324 42.8001 22.6887C43.1228 22.2449 43.5598 21.9003 44.1112 21.6549C44.6625 21.4062 45.2844 21.2818 45.9769 21.2818C46.6762 21.2818 47.293 21.4045 47.8276 21.6499C48.3654 21.8953 48.789 22.2332 49.0983 22.6635C49.4076 23.0904 49.5689 23.5812 49.5824 24.1359H48.0797ZM51.2888 21.423H53.0588L55.7566 26.1176H55.8675L58.5653 21.423H60.3353L56.5886 27.696V31.7502H55.0355V27.696L51.2888 21.423ZM70.6419 21.423V31.7502H69.2098L63.9604 24.1762H63.8646V31.7502H62.3065V21.423H63.7487L69.0031 29.0071H69.0989V21.423H70.6419ZM81.9923 24.7814H80.4191C80.3585 24.4452 80.2459 24.1493 80.0812 23.8939C79.9165 23.6384 79.7148 23.4215 79.4761 23.2434C79.2374 23.0652 78.9701 22.9307 78.6743 22.8399C78.3818 22.7492 78.0709 22.7038 77.7414 22.7038C77.1464 22.7038 76.6136 22.8534 76.1429 23.1526C75.6756 23.4518 75.3058 23.8905 75.0335 24.4687C74.7646 25.0469 74.6301 25.7529 74.6301 26.5866C74.6301 27.427 74.7646 28.1364 75.0335 28.7146C75.3058 29.2928 75.6773 29.7298 76.148 30.0257C76.6186 30.3215 77.1481 30.4694 77.7364 30.4694C78.0625 30.4694 78.3718 30.4257 78.6642 30.3383C78.9601 30.2475 79.2273 30.1148 79.466 29.9399C79.7047 29.7651 79.9064 29.5517 80.0711 29.2995C80.2392 29.044 80.3552 28.7516 80.4191 28.4221L81.9923 28.4272C81.9083 28.9348 81.7453 29.4021 81.5032 29.829C81.2645 30.2526 80.9569 30.619 80.5804 30.9283C80.2073 31.2342 79.7803 31.4712 79.2996 31.6393C78.8189 31.8074 78.2944 31.8914 77.7263 31.8914C76.8321 31.8914 76.0353 31.6796 75.3361 31.2561C74.6369 30.8291 74.0855 30.219 73.6821 29.4256C73.2821 28.6322 73.082 27.6859 73.082 26.5866C73.082 25.484 73.2838 24.5376 73.6872 23.7476C74.0906 22.9542 74.6419 22.3458 75.3411 21.9222C76.0404 21.4952 76.8354 21.2818 77.7263 21.2818C78.2743 21.2818 78.7852 21.3608 79.2593 21.5188C79.7366 21.6734 80.1652 21.902 80.5451 22.2046C80.925 22.5038 81.2393 22.8702 81.4881 23.3039C81.7369 23.7342 81.9049 24.2267 81.9923 24.7814Z" fill="black"/>
</svg>
