<svg width="33" height="33" viewBox="0 0 33 33" fill="none" xmlns="http://www.w3.org/2000/svg">
<path d="M16.5 32.5C25.3366 32.5 32.5 25.3366 32.5 16.5C32.5 7.66344 25.3366 0.5 16.5 0.5C7.66344 0.5 0.5 7.66344 0.5 16.5C0.5 25.3366 7.66344 32.5 16.5 32.5Z" fill="#26A17B"/>
<path fill-rule="evenodd" clip-rule="evenodd" d="M18.4223 17.8828V17.8808C18.3123 17.8888 17.7453 17.9228 16.4803 17.9228C15.4703 17.9228 14.7593 17.8928 14.5093 17.8808V17.8838C10.6213 17.7128 7.71929 17.0358 7.71929 16.2258C7.71929 15.4168 10.6213 14.7398 14.5093 14.5658V17.2098C14.7633 17.2278 15.4913 17.2708 16.4973 17.2708C17.7043 17.2708 18.3093 17.2208 18.4223 17.2108V14.5678C22.3023 14.7408 25.1973 15.4178 25.1973 16.2258C25.1973 17.0358 22.3023 17.7108 18.4223 17.8828ZM18.4223 14.2928V11.9268H23.8363V8.31885H9.09529V11.9268H14.5093V14.2918C10.1093 14.4938 6.80029 15.3658 6.80029 16.4098C6.80029 17.4538 10.1093 18.3248 14.5093 18.5278V26.1098H18.4223V18.5258C22.8153 18.3238 26.1163 17.4528 26.1163 16.4098C26.1163 15.3668 22.8153 14.4958 18.4223 14.2928Z" fill="white"/>
</svg>
